<?xml version="1.0" encoding="UTF-8"?>
<svg xmlns="http://www.w3.org/2000/svg" version="1.1" width="200" height="200" viewBox="0 0 200 200"><rect x="0" y="0" width="200" height="200" fill="#ffffff"/><g transform="scale(8)"><g transform="translate(0,0)"><path fill-rule="evenodd" d="M8 0L8 1L9 1L9 0ZM11 0L11 2L13 2L13 3L12 3L12 5L14 5L14 9L13 9L13 10L12 10L12 8L13 8L13 6L12 6L12 7L11 7L11 3L10 3L10 5L9 5L9 2L8 2L8 5L9 5L9 6L8 6L8 7L9 7L9 6L10 6L10 7L11 7L11 10L10 10L10 8L8 8L8 12L6 12L6 11L7 11L7 10L5 10L5 9L4 9L4 8L0 8L0 10L2 10L2 11L1 11L1 12L0 12L0 13L1 13L1 15L0 15L0 16L1 16L1 15L2 15L2 16L5 16L5 15L7 15L7 14L9 14L9 15L8 15L8 16L6 16L6 17L8 17L8 18L9 18L9 17L10 17L10 14L9 14L9 13L10 13L10 12L9 12L9 10L10 10L10 11L12 11L12 12L13 12L13 13L12 13L12 15L14 15L14 16L13 16L13 17L11 17L11 18L12 18L12 19L15 19L15 20L14 20L14 21L15 21L15 24L14 24L14 22L12 22L12 21L13 21L13 20L12 20L12 21L11 21L11 20L10 20L10 19L9 19L9 20L10 20L10 21L8 21L8 25L9 25L9 24L10 24L10 25L15 25L15 24L16 24L16 21L17 21L17 23L19 23L19 21L20 21L20 24L17 24L17 25L25 25L25 24L23 24L23 23L24 23L24 22L23 22L23 21L22 21L22 20L21 20L21 17L22 17L22 19L23 19L23 20L24 20L24 19L25 19L25 15L24 15L24 14L25 14L25 12L23 12L23 11L21 11L21 12L20 12L20 9L23 9L23 10L24 10L24 9L25 9L25 8L24 8L24 9L23 9L23 8L20 8L20 9L19 9L19 12L18 12L18 10L17 10L17 9L18 9L18 8L17 8L17 9L16 9L16 11L17 11L17 12L15 12L15 11L13 11L13 10L14 10L14 9L15 9L15 8L16 8L16 7L17 7L17 4L16 4L16 3L17 3L17 0L16 0L16 3L15 3L15 4L14 4L14 2L13 2L13 1L12 1L12 0ZM14 0L14 1L15 1L15 0ZM15 5L15 7L16 7L16 5ZM6 8L6 9L7 9L7 8ZM2 9L2 10L4 10L4 11L2 11L2 12L1 12L1 13L2 13L2 14L3 14L3 15L5 15L5 14L7 14L7 13L5 13L5 14L4 14L4 13L2 13L2 12L5 12L5 10L4 10L4 9ZM8 12L8 13L9 13L9 12ZM19 12L19 13L20 13L20 12ZM21 12L21 16L24 16L24 15L22 15L22 14L24 14L24 13L22 13L22 12ZM13 13L13 14L14 14L14 15L15 15L15 16L16 16L16 15L18 15L18 16L19 16L19 15L20 15L20 14L18 14L18 13L17 13L17 14L14 14L14 13ZM13 17L13 18L15 18L15 19L16 19L16 17ZM17 17L17 20L20 20L20 17ZM23 17L23 18L24 18L24 17ZM18 18L18 19L19 19L19 18ZM15 20L15 21L16 21L16 20ZM10 22L10 24L11 24L11 22ZM21 22L21 24L22 24L22 22ZM0 0L0 7L7 7L7 0ZM1 1L1 6L6 6L6 1ZM2 2L2 5L5 5L5 2ZM18 0L18 7L25 7L25 0ZM19 1L19 6L24 6L24 1ZM20 2L20 5L23 5L23 2ZM0 18L0 25L7 25L7 18ZM1 19L1 24L6 24L6 19ZM2 20L2 23L5 23L5 20Z" fill="#000000"/></g></g></svg>
