<?xml version="1.0" encoding="UTF-8"?>
<svg xmlns="http://www.w3.org/2000/svg" version="1.1" width="200" height="200" viewBox="0 0 200 200"><rect x="0" y="0" width="200" height="200" fill="#ffffff"/><g transform="scale(9.524)"><g transform="translate(0,0)"><path fill-rule="evenodd" d="M9 0L9 2L8 2L8 3L9 3L9 4L10 4L10 5L11 5L11 4L10 4L10 2L11 2L11 3L12 3L12 4L13 4L13 2L12 2L12 1L13 1L13 0L12 0L12 1L10 1L10 0ZM8 6L8 8L4 8L4 9L3 9L3 8L0 8L0 12L1 12L1 13L2 13L2 12L3 12L3 13L5 13L5 12L4 12L4 11L5 11L5 10L6 10L6 11L8 11L8 12L6 12L6 13L8 13L8 17L10 17L10 18L8 18L8 21L9 21L9 19L10 19L10 20L11 20L11 21L12 21L12 19L17 19L17 18L20 18L20 19L19 19L19 21L21 21L21 20L20 20L20 19L21 19L21 18L20 18L20 16L21 16L21 13L18 13L18 14L17 14L17 11L19 11L19 12L20 12L20 11L21 11L21 9L19 9L19 8L18 8L18 9L15 9L15 8L13 8L13 6L12 6L12 8L10 8L10 7L11 7L11 6L10 6L10 7L9 7L9 6ZM12 8L12 9L13 9L13 10L14 10L14 9L13 9L13 8ZM1 9L1 12L2 12L2 10L3 10L3 11L4 11L4 10L3 10L3 9ZM6 9L6 10L7 10L7 9ZM8 9L8 10L9 10L9 12L8 12L8 13L10 13L10 12L11 12L11 13L12 13L12 11L10 11L10 10L11 10L11 9ZM18 9L18 10L19 10L19 9ZM13 11L13 13L14 13L14 14L15 14L15 12L16 12L16 11ZM10 14L10 15L9 15L9 16L11 16L11 14ZM13 15L13 16L12 16L12 17L16 17L16 18L17 18L17 17L16 17L16 16L18 16L18 17L19 17L19 16L20 16L20 15L16 15L16 16L15 16L15 15ZM10 18L10 19L12 19L12 18ZM16 20L16 21L17 21L17 20ZM0 0L0 7L7 7L7 0ZM1 1L1 6L6 6L6 1ZM2 2L2 5L5 5L5 2ZM14 0L14 7L21 7L21 0ZM15 1L15 6L20 6L20 1ZM16 2L16 5L19 5L19 2ZM0 14L0 21L7 21L7 14ZM1 15L1 20L6 20L6 15ZM2 16L2 19L5 19L5 16Z" fill="#000000"/></g></g></svg>
