<?xml version="1.0" encoding="UTF-8"?>
<svg xmlns="http://www.w3.org/2000/svg" version="1.1" width="200" height="200" viewBox="0 0 200 200"><rect x="0" y="0" width="200" height="200" fill="#ffffff"/><g transform="scale(8)"><g transform="translate(0,0)"><path fill-rule="evenodd" d="M8 0L8 2L10 2L10 4L8 4L8 9L7 9L7 8L5 8L5 10L4 10L4 9L3 9L3 8L0 8L0 13L1 13L1 10L4 10L4 11L2 11L2 13L3 13L3 12L5 12L5 13L4 13L4 15L3 15L3 17L5 17L5 16L4 16L4 15L5 15L5 13L7 13L7 12L8 12L8 13L10 13L10 11L9 11L9 12L8 12L8 11L7 11L7 10L8 10L8 9L9 9L9 10L11 10L11 11L12 11L12 10L11 10L11 8L13 8L13 10L14 10L14 9L15 9L15 14L13 14L13 13L14 13L14 11L13 11L13 12L11 12L11 13L12 13L12 15L11 15L11 14L9 14L9 15L7 15L7 14L6 14L6 15L7 15L7 16L6 16L6 17L7 17L7 16L8 16L8 18L9 18L9 19L8 19L8 20L9 20L9 19L10 19L10 21L9 21L9 22L8 22L8 25L9 25L9 23L11 23L11 24L10 24L10 25L11 25L11 24L13 24L13 25L15 25L15 22L13 22L13 21L14 21L14 19L13 19L13 20L11 20L11 19L12 19L12 18L11 18L11 17L10 17L10 15L11 15L11 16L13 16L13 18L16 18L16 19L15 19L15 21L17 21L17 22L16 22L16 25L18 25L18 24L19 24L19 25L21 25L21 24L22 24L22 23L25 23L25 22L24 22L24 21L25 21L25 18L24 18L24 19L23 19L23 22L22 22L22 18L21 18L21 16L22 16L22 15L23 15L23 14L20 14L20 12L21 12L21 13L22 13L22 12L21 12L21 11L22 11L22 10L23 10L23 9L24 9L24 11L23 11L23 12L25 12L25 8L23 8L23 9L21 9L21 8L13 8L13 6L14 6L14 7L15 7L15 5L16 5L16 4L15 4L15 3L14 3L14 2L15 2L15 0L14 0L14 1L13 1L13 0L11 0L11 1L9 1L9 0ZM11 1L11 2L12 2L12 1ZM16 1L16 3L17 3L17 1ZM11 3L11 4L12 4L12 6L11 6L11 5L9 5L9 8L10 8L10 6L11 6L11 7L12 7L12 6L13 6L13 5L14 5L14 4L13 4L13 3ZM16 6L16 7L17 7L17 6ZM6 9L6 10L5 10L5 12L7 12L7 11L6 11L6 10L7 10L7 9ZM16 9L16 13L17 13L17 14L16 14L16 15L15 15L15 16L16 16L16 15L18 15L18 16L19 16L19 15L20 15L20 16L21 16L21 15L20 15L20 14L19 14L19 15L18 15L18 12L19 12L19 10L18 10L18 9ZM20 9L20 10L21 10L21 9ZM24 13L24 16L25 16L25 13ZM0 14L0 15L2 15L2 14ZM13 15L13 16L14 16L14 15ZM0 16L0 17L2 17L2 16ZM17 17L17 20L20 20L20 17ZM10 18L10 19L11 19L11 18ZM18 18L18 19L19 19L19 18ZM11 21L11 23L12 23L12 21ZM18 21L18 23L19 23L19 24L21 24L21 23L22 23L22 22L21 22L21 23L20 23L20 21ZM13 23L13 24L14 24L14 23ZM24 24L24 25L25 25L25 24ZM0 0L0 7L7 7L7 0ZM1 1L1 6L6 6L6 1ZM2 2L2 5L5 5L5 2ZM18 0L18 7L25 7L25 0ZM19 1L19 6L24 6L24 1ZM20 2L20 5L23 5L23 2ZM0 18L0 25L7 25L7 18ZM1 19L1 24L6 24L6 19ZM2 20L2 23L5 23L5 20Z" fill="#000000"/></g></g></svg>
