<?xml version="1.0" encoding="UTF-8"?>
<svg xmlns="http://www.w3.org/2000/svg" version="1.1" width="200" height="200" viewBox="0 0 200 200"><rect x="0" y="0" width="200" height="200" fill="#ffffff"/><g transform="scale(9.524)"><g transform="translate(0,0)"><path fill-rule="evenodd" d="M8 0L8 4L9 4L9 5L8 5L8 7L9 7L9 5L10 5L10 7L11 7L11 5L12 5L12 7L13 7L13 2L12 2L12 1L13 1L13 0L12 0L12 1L11 1L11 2L10 2L10 1L9 1L9 0ZM9 3L9 4L10 4L10 3ZM11 3L11 4L12 4L12 3ZM0 8L0 10L1 10L1 9L2 9L2 10L3 10L3 12L2 12L2 13L3 13L3 12L4 12L4 13L5 13L5 12L6 12L6 13L8 13L8 14L11 14L11 15L12 15L12 14L13 14L13 13L14 13L14 12L13 12L13 11L15 11L15 10L16 10L16 12L15 12L15 13L16 13L16 17L14 17L14 15L15 15L15 14L14 14L14 15L13 15L13 19L12 19L12 20L11 20L11 18L10 18L10 17L12 17L12 16L9 16L9 15L8 15L8 17L9 17L9 19L8 19L8 21L12 21L12 20L13 20L13 21L14 21L14 19L15 19L15 20L17 20L17 19L18 19L18 18L21 18L21 17L18 17L18 15L17 15L17 13L18 13L18 14L19 14L19 15L20 15L20 14L19 14L19 13L21 13L21 12L19 12L19 13L18 13L18 10L19 10L19 11L20 11L20 10L19 10L19 9L21 9L21 8L17 8L17 9L16 9L16 8L15 8L15 9L13 9L13 8L12 8L12 11L11 11L11 9L9 9L9 11L10 11L10 13L8 13L8 10L5 10L5 9L7 9L7 8L4 8L4 10L3 10L3 9L2 9L2 8ZM4 10L4 11L5 11L5 10ZM6 11L6 12L7 12L7 11ZM0 12L0 13L1 13L1 12ZM12 12L12 13L11 13L11 14L12 14L12 13L13 13L13 12ZM16 12L16 13L17 13L17 12ZM17 17L17 18L18 18L18 17ZM15 18L15 19L16 19L16 18ZM9 19L9 20L10 20L10 19ZM18 20L18 21L19 21L19 20ZM20 20L20 21L21 21L21 20ZM0 0L0 7L7 7L7 0ZM1 1L1 6L6 6L6 1ZM2 2L2 5L5 5L5 2ZM14 0L14 7L21 7L21 0ZM15 1L15 6L20 6L20 1ZM16 2L16 5L19 5L19 2ZM0 14L0 21L7 21L7 14ZM1 15L1 20L6 20L6 15ZM2 16L2 19L5 19L5 16Z" fill="#000000"/></g></g></svg>
